<mxfile host="app.diagrams.net" modified="2024-01-24T09:29:45.285Z" agent="Mozilla/5.0 (Macintosh; Intel Mac OS X 10_15_7) AppleWebKit/537.36 (KHTML, like Gecko) Chrome/120.0.0.0 Safari/537.36" etag="hHdWK7GeSlh5YRcY0zu-" version="23.0.0" type="device">
  <diagram name="Страница — 1" id="r9aCHTSzxUC5HJbahsCB">
    <mxGraphModel dx="954" dy="642" grid="1" gridSize="10" guides="1" tooltips="1" connect="1" arrows="1" fold="1" page="1" pageScale="1" pageWidth="827" pageHeight="1169" math="0" shadow="0">
      <root>
        <mxCell id="0" />
        <mxCell id="1" parent="0" />
        <mxCell id="JAlMxTsHjJwuOEpyIjYc-3" value="Text" style="text;html=1;strokeColor=none;fillColor=none;align=center;verticalAlign=middle;whiteSpace=wrap;rounded=0;" parent="1" vertex="1">
          <mxGeometry x="400" y="210" width="60" height="30" as="geometry" />
        </mxCell>
        <mxCell id="JAlMxTsHjJwuOEpyIjYc-9" style="edgeStyle=orthogonalEdgeStyle;rounded=0;orthogonalLoop=1;jettySize=auto;html=1;" parent="1" source="JAlMxTsHjJwuOEpyIjYc-10" target="JAlMxTsHjJwuOEpyIjYc-12" edge="1">
          <mxGeometry relative="1" as="geometry" />
        </mxCell>
        <mxCell id="JAlMxTsHjJwuOEpyIjYc-10" value="start" style="ellipse;whiteSpace=wrap;html=1;" parent="1" vertex="1">
          <mxGeometry x="330" y="30" width="120" height="60" as="geometry" />
        </mxCell>
        <mxCell id="JAlMxTsHjJwuOEpyIjYc-11" value="" style="edgeStyle=orthogonalEdgeStyle;rounded=0;orthogonalLoop=1;jettySize=auto;html=1;" parent="1" source="JAlMxTsHjJwuOEpyIjYc-12" target="JAlMxTsHjJwuOEpyIjYc-14" edge="1">
          <mxGeometry relative="1" as="geometry" />
        </mxCell>
        <mxCell id="JAlMxTsHjJwuOEpyIjYc-12" value="array = []" style="shape=parallelogram;perimeter=parallelogramPerimeter;whiteSpace=wrap;html=1;fixedSize=1;" parent="1" vertex="1">
          <mxGeometry x="290" y="120" width="200" height="50" as="geometry" />
        </mxCell>
        <mxCell id="JAlMxTsHjJwuOEpyIjYc-48" value="" style="edgeStyle=orthogonalEdgeStyle;rounded=0;orthogonalLoop=1;jettySize=auto;html=1;" parent="1" source="JAlMxTsHjJwuOEpyIjYc-14" target="JAlMxTsHjJwuOEpyIjYc-47" edge="1">
          <mxGeometry relative="1" as="geometry" />
        </mxCell>
        <mxCell id="JAlMxTsHjJwuOEpyIjYc-14" value="index=0&lt;br&gt;index1=0&lt;br&gt;NewArray = []" style="whiteSpace=wrap;html=1;" parent="1" vertex="1">
          <mxGeometry x="310" y="220" width="160" height="60" as="geometry" />
        </mxCell>
        <mxCell id="JAlMxTsHjJwuOEpyIjYc-51" value="" style="edgeStyle=orthogonalEdgeStyle;rounded=0;orthogonalLoop=1;jettySize=auto;html=1;entryX=0.466;entryY=0;entryDx=0;entryDy=0;entryPerimeter=0;" parent="1" source="JAlMxTsHjJwuOEpyIjYc-17" target="JAlMxTsHjJwuOEpyIjYc-31" edge="1">
          <mxGeometry relative="1" as="geometry" />
        </mxCell>
        <mxCell id="JAlMxTsHjJwuOEpyIjYc-53" value="" style="edgeStyle=orthogonalEdgeStyle;rounded=0;orthogonalLoop=1;jettySize=auto;html=1;" parent="1" source="JAlMxTsHjJwuOEpyIjYc-17" target="JAlMxTsHjJwuOEpyIjYc-22" edge="1">
          <mxGeometry relative="1" as="geometry" />
        </mxCell>
        <mxCell id="JAlMxTsHjJwuOEpyIjYc-17" value="array[index].length &amp;lt;= 3" style="rhombus;whiteSpace=wrap;html=1;" parent="1" vertex="1">
          <mxGeometry x="302.5" y="440" width="175" height="110" as="geometry" />
        </mxCell>
        <mxCell id="JAlMxTsHjJwuOEpyIjYc-56" style="edgeStyle=orthogonalEdgeStyle;rounded=0;orthogonalLoop=1;jettySize=auto;html=1;" parent="1" source="JAlMxTsHjJwuOEpyIjYc-22" edge="1">
          <mxGeometry relative="1" as="geometry">
            <mxPoint x="617.5" y="350" as="targetPoint" />
          </mxGeometry>
        </mxCell>
        <mxCell id="JAlMxTsHjJwuOEpyIjYc-22" value="&lt;span style=&quot;caret-color: rgb(0, 0, 0); color: rgb(0, 0, 0); font-family: Helvetica; font-size: 12px; font-style: normal; font-variant-caps: normal; font-weight: 400; letter-spacing: normal; text-align: center; text-indent: 0px; text-transform: none; word-spacing: 0px; -webkit-text-stroke-width: 0px; background-color: rgb(251, 251, 251); text-decoration: none; float: none; display: inline !important;&quot;&gt;index+=1&lt;/span&gt;" style="rounded=0;whiteSpace=wrap;html=1;" parent="1" vertex="1">
          <mxGeometry x="550" y="470" width="135" height="50" as="geometry" />
        </mxCell>
        <mxCell id="JAlMxTsHjJwuOEpyIjYc-55" style="edgeStyle=orthogonalEdgeStyle;rounded=0;orthogonalLoop=1;jettySize=auto;html=1;" parent="1" source="JAlMxTsHjJwuOEpyIjYc-31" edge="1">
          <mxGeometry relative="1" as="geometry">
            <mxPoint x="620" y="530" as="targetPoint" />
          </mxGeometry>
        </mxCell>
        <mxCell id="JAlMxTsHjJwuOEpyIjYc-31" value="NewArray[index1]+=array[index]&lt;br&gt;index1+=1&amp;nbsp;&amp;nbsp;" style="rounded=0;whiteSpace=wrap;html=1;" parent="1" vertex="1">
          <mxGeometry x="302.5" y="620" width="190" height="70" as="geometry" />
        </mxCell>
        <mxCell id="JAlMxTsHjJwuOEpyIjYc-33" value="" style="edgeStyle=orthogonalEdgeStyle;rounded=0;orthogonalLoop=1;jettySize=auto;html=1;" parent="1" source="JAlMxTsHjJwuOEpyIjYc-34" target="JAlMxTsHjJwuOEpyIjYc-35" edge="1">
          <mxGeometry relative="1" as="geometry" />
        </mxCell>
        <mxCell id="JAlMxTsHjJwuOEpyIjYc-34" value="print NewArray[]" style="shape=document;whiteSpace=wrap;html=1;boundedLbl=1;" parent="1" vertex="1">
          <mxGeometry y="335" width="120" height="80" as="geometry" />
        </mxCell>
        <mxCell id="JAlMxTsHjJwuOEpyIjYc-35" value="end" style="ellipse;whiteSpace=wrap;html=1;" parent="1" vertex="1">
          <mxGeometry x="20" y="485" width="80" height="60" as="geometry" />
        </mxCell>
        <mxCell id="JAlMxTsHjJwuOEpyIjYc-36" value="yes" style="text;html=1;align=center;verticalAlign=middle;resizable=0;points=[];autosize=1;strokeColor=none;fillColor=none;" parent="1" vertex="1">
          <mxGeometry x="340" y="400" width="40" height="30" as="geometry" />
        </mxCell>
        <mxCell id="JAlMxTsHjJwuOEpyIjYc-39" value="no" style="text;html=1;align=center;verticalAlign=middle;resizable=0;points=[];autosize=1;strokeColor=none;fillColor=none;rotation=0;" parent="1" vertex="1">
          <mxGeometry x="250" y="320" width="40" height="30" as="geometry" />
        </mxCell>
        <mxCell id="JAlMxTsHjJwuOEpyIjYc-50" value="" style="edgeStyle=orthogonalEdgeStyle;rounded=0;orthogonalLoop=1;jettySize=auto;html=1;" parent="1" source="JAlMxTsHjJwuOEpyIjYc-47" target="JAlMxTsHjJwuOEpyIjYc-17" edge="1">
          <mxGeometry relative="1" as="geometry" />
        </mxCell>
        <mxCell id="JAlMxTsHjJwuOEpyIjYc-47" value="index &amp;lt; array[].length" style="rhombus;whiteSpace=wrap;html=1;" parent="1" vertex="1">
          <mxGeometry x="300" y="300" width="180" height="100" as="geometry" />
        </mxCell>
        <mxCell id="JAlMxTsHjJwuOEpyIjYc-49" style="edgeStyle=orthogonalEdgeStyle;rounded=0;orthogonalLoop=1;jettySize=auto;html=1;entryX=1.017;entryY=0.15;entryDx=0;entryDy=0;entryPerimeter=0;" parent="1" source="JAlMxTsHjJwuOEpyIjYc-47" target="JAlMxTsHjJwuOEpyIjYc-34" edge="1">
          <mxGeometry relative="1" as="geometry">
            <Array as="points">
              <mxPoint x="122" y="350" />
            </Array>
          </mxGeometry>
        </mxCell>
        <mxCell id="JAlMxTsHjJwuOEpyIjYc-52" value="yes" style="text;html=1;strokeColor=none;fillColor=none;align=center;verticalAlign=middle;whiteSpace=wrap;rounded=0;" parent="1" vertex="1">
          <mxGeometry x="340" y="569.5" width="60" height="30" as="geometry" />
        </mxCell>
        <mxCell id="JAlMxTsHjJwuOEpyIjYc-54" value="no" style="text;html=1;align=center;verticalAlign=middle;resizable=0;points=[];autosize=1;strokeColor=none;fillColor=none;rotation=0;" parent="1" vertex="1">
          <mxGeometry x="490" y="455" width="40" height="30" as="geometry" />
        </mxCell>
        <mxCell id="JAlMxTsHjJwuOEpyIjYc-57" style="edgeStyle=orthogonalEdgeStyle;rounded=0;orthogonalLoop=1;jettySize=auto;html=1;" parent="1" edge="1">
          <mxGeometry relative="1" as="geometry">
            <mxPoint x="490" y="350" as="targetPoint" />
            <mxPoint x="620" y="350" as="sourcePoint" />
          </mxGeometry>
        </mxCell>
      </root>
    </mxGraphModel>
  </diagram>
</mxfile>
